<?xml version="1.0" encoding="utf-8"?>
<!-- Generator: Adobe Illustrator 28.3.0, SVG Export Plug-In . SVG Version: 6.00 Build 0)  -->
<svg version="1.1" id="Layer_1" xmlns="http://www.w3.org/2000/svg" xmlns:xlink="http://www.w3.org/1999/xlink" x="0px" y="0px"
	 viewBox="0 0 468 194.7" style="enable-background:new 0 0 468 194.7;" xml:space="preserve">
<style type="text/css">
	.st0{fill-rule:evenodd;clip-rule:evenodd;fill:#635BFF;}
</style>
<g>
	<path class="st0" d="M468,100.6c0-33.3-16.1-59.5-46.9-59.5c-30.9,0-49.7,26.3-49.7,59.3c0,39.1,22.1,58.9,53.8,58.9
		c15.5,0,27.2-3.5,36-8.4v-26c-8.8,4.4-19,7.1-31.9,7.1c-12.6,0-23.8-4.4-25.2-19.8h63.6C467.7,110.5,468,103.7,468,100.6z
		 M403.8,88.3c0-14.7,9-20.8,17.2-20.8c7.9,0,16.4,6.1,16.4,20.8H403.8z"/>
	<path class="st0" d="M321.2,41.1c-12.7,0-20.9,6-25.5,10.1l-1.7-8.1h-28.6v151.6l32.5-6.9l0.1-36.8c4.7,3.4,11.6,8.2,23,8.2
		c23.3,0,44.5-18.7,44.5-59.9C365.4,61.6,344,41.1,321.2,41.1z M313.4,130.6c-7.7,0-12.2-2.7-15.3-6.1L298,76.3
		c3.4-3.8,8.1-6.4,15.5-6.4c11.8,0,20,13.3,20,30.3C333.5,117.7,325.4,130.6,313.4,130.6z"/>
	<polygon class="st0" points="220.7,33.4 253.4,26.4 253.4,0 220.7,6.9 	"/>
	<rect x="220.7" y="43.3" class="st0" width="32.6" height="113.8"/>
	<path class="st0" d="M185.8,52.9l-2.1-9.6h-28.1V157h32.5V79.9c7.7-10,20.7-8.2,24.7-6.8V43.3C208.6,41.7,193.4,38.9,185.8,52.9z"
		/>
	<path class="st0" d="M120.8,15.1L89,21.8L88.9,126c0,19.2,14.4,33.4,33.7,33.4c10.7,0,18.5-1.9,22.8-4.3v-26.4
		c-4.2,1.7-24.7,7.7-24.7-11.6V71h24.7V43.3h-24.7L120.8,15.1z"/>
	<path class="st0" d="M32.9,76.3c0-5.1,4.2-7,11-7c9.9,0,22.4,3,32.2,8.3V47.1c-10.8-4.3-21.5-6-32.2-6C17.5,41.1,0,54.9,0,77.9
		c0,35.9,49.4,30.2,49.4,45.6c0,6-5.2,7.9-12.5,7.9c-10.8,0-24.6-4.4-35.5-10.4V152c12.1,5.2,24.3,7.4,35.5,7.4
		c27,0,45.6-13.4,45.6-36.7C82.4,84,32.9,90.9,32.9,76.3z"/>
</g>
</svg>
